<svg width="1918" height="350" viewBox="0 0 1918 350" fill="none" xmlns="http://www.w3.org/2000/svg">
<g clip-path="url(#clip0_29_99)" filter="url(#filter0_f_29_99)">
<mask id="mask0_29_99" style="mask-type:luminance" maskUnits="userSpaceOnUse" x="-2" y="-199" width="1920" height="747">
<path d="M1918 -199H-2V548H1918V-199Z" fill="white"/>
</mask>
<g mask="url(#mask0_29_99)">
<path d="M1918 -199H-2V548H1918V-199Z" fill="#F7FDF7"/>
<path d="M357.173 418.996L270.573 368.973L183.96 418.996V519.04L270.573 569.063M357.173 418.996V519.04M357.173 418.996L443.773 368.973L530.387 418.996V519.04M357.173 519.04L270.573 569.063M357.173 519.04L443.773 569.063M270.573 569.063V669.107L357.173 719.13L443.773 669.107M443.773 569.063V669.107M443.773 569.063L530.387 519.04M443.773 669.107L530.387 719.13L616.987 669.107V569.063L530.387 519.04M703.6 -181.272L616.987 -231.294L530.387 -181.272V-81.2274L616.987 -31.205M703.6 -181.272V-81.2274M703.6 -181.272L790.2 -231.294L876.8 -181.272V-81.2274M703.6 -81.2274L616.987 -31.205M703.6 -81.2274L790.2 -31.205M616.987 -31.205V68.8396L703.6 118.862L790.2 68.8396M790.2 -31.205V68.8396M790.2 -31.205L876.8 -81.2274M790.2 68.8396L876.8 118.862M876.8 -81.2274L963.413 -31.205M963.413 -31.205V68.8396M963.413 -31.205L1050.01 -81.2274L1136.63 -31.205V68.8396L1050.01 118.862M963.413 68.8396L876.8 118.862M963.413 68.8396L1050.01 118.862M876.8 118.862V218.907L963.413 268.929L1050.01 218.907V118.862M1223.23 519.04V418.996L1136.61 368.973L1050.01 418.996V519.04L1136.61 569.063M1223.23 519.04L1136.61 569.063M1223.23 519.04L1309.83 569.063V669.107L1223.23 719.13L1136.61 669.107V569.063M1396.44 118.862L1309.83 68.8396L1223.23 118.862V218.907L1309.83 268.929L1396.44 218.907M1396.44 118.862V218.907M1396.44 118.862L1483.04 68.8396L1569.64 118.862V218.907L1483.04 268.929L1396.44 218.907M1569.64 418.996L1483.04 368.973L1396.44 418.996V519.04L1483.04 569.063L1569.64 519.04M1569.64 418.996V519.04M1569.64 418.996L1656.25 368.973L1742.85 418.996V519.04L1656.25 569.063L1569.64 519.04M1742.85 118.862L1829.45 68.8396V-31.205L1742.85 -81.2274L1656.25 -31.205V68.8396L1742.85 118.862ZM1742.85 118.862V218.907L1829.47 268.929L1916.07 218.907V118.862L1829.47 68.8396L1742.85 118.862ZM790.2 368.973L876.8 418.996V519.04L790.2 569.063L703.6 519.04V418.996L790.2 368.973ZM1309.83 -231.294L1396.44 -181.272V-81.2274L1309.83 -31.205L1223.23 -81.2274V-181.272L1309.83 -231.294ZM2089.28 218.907L2175.88 268.929V368.973L2089.28 418.996L2002.67 368.973V268.929L2089.28 218.907ZM2089.28 519.04L2175.88 569.063V669.107L2089.28 719.13L2002.67 669.107V569.063L2089.28 519.04Z" stroke="#245929" stroke-width="2"/>
<path d="M260.573 368.973C260.573 371.627 261.627 374.172 263.502 376.048C265.378 377.924 267.921 378.978 270.573 378.978C273.226 378.978 275.769 377.924 277.644 376.048C279.52 374.172 280.573 371.627 280.573 368.973C280.573 366.32 279.52 363.775 277.644 361.899C275.769 360.023 273.226 358.969 270.573 358.969C267.921 358.969 265.378 360.023 263.502 361.899C261.627 363.775 260.573 366.32 260.573 368.973ZM347.173 418.996C347.173 421.649 348.227 424.194 350.102 426.07C351.978 427.946 354.521 429 357.173 429C359.826 429 362.369 427.946 364.244 426.07C366.12 424.194 367.173 421.649 367.173 418.996C367.173 416.342 366.12 413.798 364.244 411.922C362.369 410.045 359.826 408.991 357.173 408.991C354.521 408.991 351.978 410.045 350.102 411.922C348.227 413.798 347.173 416.342 347.173 418.996ZM347.173 519.04C347.173 521.694 348.227 524.239 350.102 526.115C351.978 527.991 354.521 529.045 357.173 529.045C359.826 529.045 362.369 527.991 364.244 526.115C366.12 524.239 367.173 521.694 367.173 519.04C367.173 516.387 366.12 513.842 364.244 511.966C362.369 510.09 359.826 509.036 357.173 509.036C354.521 509.036 351.978 510.09 350.102 511.966C348.227 513.842 347.173 516.387 347.173 519.04ZM260.573 569.063C260.573 571.716 261.627 574.261 263.502 576.137C265.378 578.013 267.921 579.067 270.573 579.067C273.226 579.067 275.769 578.013 277.644 576.137C279.52 574.261 280.573 571.716 280.573 569.063C280.573 566.409 279.52 563.865 277.644 561.989C275.769 560.112 273.226 559.058 270.573 559.058C267.921 559.058 265.378 560.112 263.502 561.989C261.627 563.865 260.573 566.409 260.573 569.063ZM173.96 519.04C173.96 521.694 175.014 524.239 176.889 526.115C178.764 527.991 181.308 529.045 183.96 529.045C186.612 529.045 189.156 527.991 191.031 526.115C192.906 524.239 193.96 521.694 193.96 519.04C193.96 516.387 192.906 513.842 191.031 511.966C189.156 510.09 186.612 509.036 183.96 509.036C181.308 509.036 178.764 510.09 176.889 511.966C175.014 513.842 173.96 516.387 173.96 519.04ZM173.96 418.996C173.96 421.649 175.014 424.194 176.889 426.07C178.764 427.946 181.308 429 183.96 429C186.612 429 189.156 427.946 191.031 426.07C192.906 424.194 193.96 421.649 193.96 418.996C193.96 416.342 192.906 413.798 191.031 411.922C189.156 410.045 186.612 408.991 183.96 408.991C181.308 408.991 178.764 410.045 176.889 411.922C175.014 413.798 173.96 416.342 173.96 418.996ZM433.773 569.063C433.773 571.716 434.827 574.261 436.702 576.137C438.578 578.013 441.121 579.067 443.773 579.067C446.426 579.067 448.969 578.013 450.844 576.137C452.72 574.261 453.773 571.716 453.773 569.063C453.773 566.409 452.72 563.865 450.844 561.989C448.969 560.112 446.426 559.058 443.773 559.058C441.121 559.058 438.578 560.112 436.702 561.989C434.827 563.865 433.773 566.409 433.773 569.063ZM433.773 669.107C433.773 671.761 434.827 674.306 436.702 676.182C438.578 678.058 441.121 679.112 443.773 679.112C446.426 679.112 448.969 678.058 450.844 676.182C452.72 674.306 453.773 671.761 453.773 669.107C453.773 666.454 452.72 663.909 450.844 662.033C448.969 660.157 446.426 659.103 443.773 659.103C441.121 659.103 438.578 660.157 436.702 662.033C434.827 663.909 433.773 666.454 433.773 669.107ZM347.173 719.13C347.173 721.783 348.227 724.328 350.102 726.204C351.978 728.08 354.521 729.134 357.173 729.134C359.826 729.134 362.369 728.08 364.244 726.204C366.12 724.328 367.173 721.783 367.173 719.13C367.173 716.476 366.12 713.932 364.244 712.056C362.369 710.179 359.826 709.125 357.173 709.125C354.521 709.125 351.978 710.179 350.102 712.056C348.227 713.932 347.173 716.476 347.173 719.13ZM260.573 669.107C260.573 671.761 261.627 674.306 263.502 676.182C265.378 678.058 267.921 679.112 270.573 679.112C273.226 679.112 275.769 678.058 277.644 676.182C279.52 674.306 280.573 671.761 280.573 669.107C280.573 666.454 279.52 663.909 277.644 662.033C275.769 660.157 273.226 659.103 270.573 659.103C267.921 659.103 265.378 660.157 263.502 662.033C261.627 663.909 260.573 666.454 260.573 669.107ZM433.773 368.973C433.773 371.627 434.827 374.172 436.702 376.048C438.578 377.924 441.121 378.978 443.773 378.978C446.426 378.978 448.969 377.924 450.844 376.048C452.72 374.172 453.773 371.627 453.773 368.973C453.773 366.32 452.72 363.775 450.844 361.899C448.969 360.023 446.426 358.969 443.773 358.969C441.121 358.969 438.578 360.023 436.702 361.899C434.827 363.775 433.773 366.32 433.773 368.973ZM520.387 418.996C520.387 421.649 521.44 424.194 523.316 426.07C525.191 427.946 527.735 429 530.387 429C533.039 429 535.582 427.946 537.458 426.07C539.333 424.194 540.387 421.649 540.387 418.996C540.387 416.342 539.333 413.798 537.458 411.922C535.582 410.045 533.039 408.991 530.387 408.991C527.735 408.991 525.191 410.045 523.316 411.922C521.44 413.798 520.387 416.342 520.387 418.996ZM520.387 519.04C520.387 521.694 521.44 524.239 523.316 526.115C525.191 527.991 527.735 529.045 530.387 529.045C533.039 529.045 535.582 527.991 537.458 526.115C539.333 524.239 540.387 521.694 540.387 519.04C540.387 516.387 539.333 513.842 537.458 511.966C535.582 510.09 533.039 509.036 530.387 509.036C527.735 509.036 525.191 510.09 523.316 511.966C521.44 513.842 520.387 516.387 520.387 519.04ZM606.987 569.063C606.987 571.716 608.04 574.261 609.916 576.137C611.791 578.013 614.335 579.067 616.987 579.067C619.639 579.067 622.182 578.013 624.058 576.137C625.933 574.261 626.987 571.716 626.987 569.063C626.987 566.409 625.933 563.865 624.058 561.989C622.182 560.112 619.639 559.058 616.987 559.058C614.335 559.058 611.791 560.112 609.916 561.989C608.04 563.865 606.987 566.409 606.987 569.063ZM606.987 669.107C606.987 671.761 608.04 674.306 609.916 676.182C611.791 678.058 614.335 679.112 616.987 679.112C619.639 679.112 622.182 678.058 624.058 676.182C625.933 674.306 626.987 671.761 626.987 669.107C626.987 666.454 625.933 663.909 624.058 662.033C622.182 660.157 619.639 659.103 616.987 659.103C614.335 659.103 611.791 660.157 609.916 662.033C608.04 663.909 606.987 666.454 606.987 669.107ZM520.387 719.13C520.387 721.783 521.44 724.328 523.316 726.204C525.191 728.08 527.735 729.134 530.387 729.134C533.039 729.134 535.582 728.08 537.458 726.204C539.333 724.328 540.387 721.783 540.387 719.13C540.387 716.476 539.333 713.932 537.458 712.056C535.582 710.179 533.039 709.125 530.387 709.125C527.735 709.125 525.191 710.179 523.316 712.056C521.44 713.932 520.387 716.476 520.387 719.13ZM606.987 -231.294C606.987 -228.641 608.04 -226.096 609.916 -224.22C611.791 -222.344 614.335 -221.29 616.987 -221.29C619.639 -221.29 622.182 -222.344 624.058 -224.22C625.933 -226.096 626.987 -228.641 626.987 -231.294C626.987 -233.948 625.933 -236.492 624.058 -238.369C622.182 -240.245 619.639 -241.299 616.987 -241.299C614.335 -241.299 611.791 -240.245 609.916 -238.369C608.04 -236.492 606.987 -233.948 606.987 -231.294ZM693.6 -181.272C693.6 -178.619 694.654 -176.074 696.529 -174.198C698.404 -172.322 700.948 -171.268 703.6 -171.268C706.252 -171.268 708.796 -172.322 710.671 -174.198C712.546 -176.074 713.6 -178.619 713.6 -181.272C713.6 -183.925 712.546 -186.47 710.671 -188.346C708.796 -190.222 706.252 -191.277 703.6 -191.277C700.948 -191.277 698.404 -190.222 696.529 -188.346C694.654 -186.47 693.6 -183.925 693.6 -181.272ZM693.6 -81.2274C693.6 -78.574 694.654 -76.0294 696.529 -74.1532C698.404 -72.277 700.948 -71.2229 703.6 -71.2229C706.252 -71.2229 708.796 -72.277 710.671 -74.1532C712.546 -76.0294 713.6 -78.574 713.6 -81.2274C713.6 -83.8807 712.546 -86.4254 710.671 -88.3016C708.796 -90.1778 706.252 -91.2319 703.6 -91.2319C700.948 -91.2319 698.404 -90.1778 696.529 -88.3016C694.654 -86.4254 693.6 -83.8807 693.6 -81.2274ZM606.987 -31.2051C606.987 -28.5517 608.04 -26.007 609.916 -24.1308C611.791 -22.2546 614.335 -21.2006 616.987 -21.2006C619.639 -21.2006 622.182 -22.2546 624.058 -24.1308C625.933 -26.007 626.987 -28.5517 626.987 -31.2051C626.987 -33.8584 625.933 -36.4031 624.058 -38.2793C622.182 -40.1555 619.639 -41.2095 616.987 -41.2095C614.335 -41.2095 611.791 -40.1555 609.916 -38.2793C608.04 -36.4031 606.987 -33.8584 606.987 -31.2051ZM520.387 -81.2274C520.387 -78.574 521.44 -76.0294 523.316 -74.1532C525.191 -72.277 527.735 -71.2229 530.387 -71.2229C533.039 -71.2229 535.582 -72.277 537.458 -74.1532C539.333 -76.0294 540.387 -78.574 540.387 -81.2274C540.387 -83.8807 539.333 -86.4254 537.458 -88.3016C535.582 -90.1778 533.039 -91.2319 530.387 -91.2319C527.735 -91.2319 525.191 -90.1778 523.316 -88.3016C521.44 -86.4254 520.387 -83.8807 520.387 -81.2274ZM520.387 -181.272C520.387 -178.619 521.44 -176.074 523.316 -174.198C525.191 -172.322 527.735 -171.268 530.387 -171.268C533.039 -171.268 535.582 -172.322 537.458 -174.198C539.333 -176.074 540.387 -178.619 540.387 -181.272C540.387 -183.925 539.333 -186.47 537.458 -188.346C535.582 -190.222 533.039 -191.277 530.387 -191.277C527.735 -191.277 525.191 -190.222 523.316 -188.346C521.44 -186.47 520.387 -183.925 520.387 -181.272ZM780.2 -31.2051C780.2 -28.5517 781.254 -26.007 783.129 -24.1308C785.004 -22.2546 787.548 -21.2006 790.2 -21.2006C792.852 -21.2006 795.396 -22.2546 797.271 -24.1308C799.146 -26.007 800.2 -28.5517 800.2 -31.2051C800.2 -33.8584 799.146 -36.4031 797.271 -38.2793C795.396 -40.1555 792.852 -41.2095 790.2 -41.2095C787.548 -41.2095 785.004 -40.1555 783.129 -38.2793C781.254 -36.4031 780.2 -33.8584 780.2 -31.2051ZM780.2 68.8396C780.2 71.4929 781.254 74.0376 783.129 75.9138C785.004 77.79 787.548 78.844 790.2 78.844C792.852 78.844 795.396 77.79 797.271 75.9138C799.146 74.0376 800.2 71.4929 800.2 68.8396C800.2 66.1862 799.146 63.6415 797.271 61.7653C795.396 59.8891 792.852 58.8351 790.2 58.8351C787.548 58.8351 785.004 59.8891 783.129 61.7653C781.254 63.6415 780.2 66.1862 780.2 68.8396ZM693.6 118.862C693.6 121.515 694.654 124.06 696.529 125.936C698.404 127.812 700.948 128.866 703.6 128.866C706.252 128.866 708.796 127.812 710.671 125.936C712.546 124.06 713.6 121.515 713.6 118.862C713.6 116.209 712.546 113.664 710.671 111.788C708.796 109.911 706.252 108.857 703.6 108.857C700.948 108.857 698.404 109.911 696.529 111.788C694.654 113.664 693.6 116.209 693.6 118.862ZM606.987 68.8396C606.987 71.4929 608.04 74.0376 609.916 75.9138C611.791 77.79 614.335 78.844 616.987 78.844C619.639 78.844 622.182 77.79 624.058 75.9138C625.933 74.0376 626.987 71.4929 626.987 68.8396C626.987 66.1862 625.933 63.6415 624.058 61.7653C622.182 59.8891 619.639 58.8351 616.987 58.8351C614.335 58.8351 611.791 59.8891 609.916 61.7653C608.04 63.6415 606.987 66.1862 606.987 68.8396ZM780.2 -231.294C780.2 -228.641 781.254 -226.096 783.129 -224.22C785.004 -222.344 787.548 -221.29 790.2 -221.29C792.852 -221.29 795.396 -222.344 797.271 -224.22C799.146 -226.096 800.2 -228.641 800.2 -231.294C800.2 -233.948 799.146 -236.492 797.271 -238.369C795.396 -240.245 792.852 -241.299 790.2 -241.299C787.548 -241.299 785.004 -240.245 783.129 -238.369C781.254 -236.492 780.2 -233.948 780.2 -231.294ZM866.8 -181.272C866.8 -178.619 867.854 -176.074 869.729 -174.198C871.604 -172.322 874.148 -171.268 876.8 -171.268C879.452 -171.268 881.996 -172.322 883.871 -174.198C885.747 -176.074 886.8 -178.619 886.8 -181.272C886.8 -183.925 885.747 -186.47 883.871 -188.346C881.996 -190.222 879.452 -191.277 876.8 -191.277C874.148 -191.277 871.604 -190.222 869.729 -188.346C867.854 -186.47 866.8 -183.925 866.8 -181.272ZM866.8 -81.2274C866.8 -78.574 867.854 -76.0294 869.729 -74.1532C871.604 -72.277 874.148 -71.2229 876.8 -71.2229C879.452 -71.2229 881.996 -72.277 883.871 -74.1532C885.747 -76.0294 886.8 -78.574 886.8 -81.2274C886.8 -83.8807 885.747 -86.4254 883.871 -88.3016C881.996 -90.1778 879.452 -91.2319 876.8 -91.2319C874.148 -91.2319 871.604 -90.1778 869.729 -88.3016C867.854 -86.4254 866.8 -83.8807 866.8 -81.2274ZM953.413 -31.2051C953.413 -28.5517 954.467 -26.007 956.342 -24.1308C958.218 -22.2546 960.761 -21.2006 963.413 -21.2006C966.065 -21.2006 968.609 -22.2546 970.484 -24.1308C972.36 -26.007 973.413 -28.5517 973.413 -31.2051C973.413 -33.8584 972.36 -36.4031 970.484 -38.2793C968.609 -40.1555 966.065 -41.2095 963.413 -41.2095C960.761 -41.2095 958.218 -40.1555 956.342 -38.2793C954.467 -36.4031 953.413 -33.8584 953.413 -31.2051ZM953.413 68.8396C953.413 71.4929 954.467 74.0376 956.342 75.9138C958.218 77.79 960.761 78.844 963.413 78.844C966.065 78.844 968.609 77.79 970.484 75.9138C972.36 74.0376 973.413 71.4929 973.413 68.8396C973.413 66.1862 972.36 63.6415 970.484 61.7653C968.609 59.8891 966.065 58.8351 963.413 58.8351C960.761 58.8351 958.218 59.8891 956.342 61.7653C954.467 63.6415 953.413 66.1862 953.413 68.8396ZM866.8 118.862C866.8 121.515 867.854 124.06 869.729 125.936C871.604 127.812 874.148 128.866 876.8 128.866C879.452 128.866 881.996 127.812 883.871 125.936C885.747 124.06 886.8 121.515 886.8 118.862C886.8 116.209 885.747 113.664 883.871 111.788C881.996 109.911 879.452 108.857 876.8 108.857C874.148 108.857 871.604 109.911 869.729 111.788C867.854 113.664 866.8 116.209 866.8 118.862ZM780.2 368.973C780.2 371.627 781.254 374.172 783.129 376.048C785.004 377.924 787.548 378.978 790.2 378.978C792.852 378.978 795.396 377.924 797.271 376.048C799.146 374.172 800.2 371.627 800.2 368.973C800.2 366.32 799.146 363.775 797.271 361.899C795.396 360.023 792.852 358.969 790.2 358.969C787.548 358.969 785.004 360.023 783.129 361.899C781.254 363.775 780.2 366.32 780.2 368.973ZM866.8 418.996C866.8 421.649 867.854 424.194 869.729 426.07C871.604 427.946 874.148 429 876.8 429C879.452 429 881.996 427.946 883.871 426.07C885.747 424.194 886.8 421.649 886.8 418.996C886.8 416.342 885.747 413.798 883.871 411.922C881.996 410.045 879.452 408.991 876.8 408.991C874.148 408.991 871.604 410.045 869.729 411.922C867.854 413.798 866.8 416.342 866.8 418.996ZM866.8 519.04C866.8 521.694 867.854 524.239 869.729 526.115C871.604 527.991 874.148 529.045 876.8 529.045C879.452 529.045 881.996 527.991 883.871 526.115C885.747 524.239 886.8 521.694 886.8 519.04C886.8 516.387 885.747 513.842 883.871 511.966C881.996 510.09 879.452 509.036 876.8 509.036C874.148 509.036 871.604 510.09 869.729 511.966C867.854 513.842 866.8 516.387 866.8 519.04ZM780.2 569.063C780.2 571.716 781.254 574.261 783.129 576.137C785.004 578.013 787.548 579.067 790.2 579.067C792.852 579.067 795.396 578.013 797.271 576.137C799.146 574.261 800.2 571.716 800.2 569.063C800.2 566.409 799.146 563.865 797.271 561.989C795.396 560.112 792.852 559.058 790.2 559.058C787.548 559.058 785.004 560.112 783.129 561.989C781.254 563.865 780.2 566.409 780.2 569.063ZM693.6 519.04C693.6 521.694 694.654 524.239 696.529 526.115C698.404 527.991 700.948 529.045 703.6 529.045C706.252 529.045 708.796 527.991 710.671 526.115C712.546 524.239 713.6 521.694 713.6 519.04C713.6 516.387 712.546 513.842 710.671 511.966C708.796 510.09 706.252 509.036 703.6 509.036C700.948 509.036 698.404 510.09 696.529 511.966C694.654 513.842 693.6 516.387 693.6 519.04ZM693.6 418.996C693.6 421.649 694.654 424.194 696.529 426.07C698.404 427.946 700.948 429 703.6 429C706.252 429 708.796 427.946 710.671 426.07C712.546 424.194 713.6 421.649 713.6 418.996C713.6 416.342 712.546 413.798 710.671 411.922C708.796 410.045 706.252 408.991 703.6 408.991C700.948 408.991 698.404 410.045 696.529 411.922C694.654 413.798 693.6 416.342 693.6 418.996ZM1040.01 -81.2274C1040.01 -78.574 1041.07 -76.0294 1042.94 -74.1532C1044.82 -72.277 1047.36 -71.2229 1050.01 -71.2229C1052.67 -71.2229 1055.21 -72.277 1057.08 -74.1532C1058.96 -76.0294 1060.01 -78.574 1060.01 -81.2274C1060.01 -83.8807 1058.96 -86.4254 1057.08 -88.3016C1055.21 -90.1778 1052.67 -91.2319 1050.01 -91.2319C1047.36 -91.2319 1044.82 -90.1778 1042.94 -88.3016C1041.07 -86.4254 1040.01 -83.8807 1040.01 -81.2274ZM1126.63 -31.2051C1126.63 -28.5517 1127.68 -26.007 1129.56 -24.1308C1131.43 -22.2546 1133.97 -21.2006 1136.63 -21.2006C1139.28 -21.2006 1141.82 -22.2546 1143.7 -24.1308C1145.57 -26.007 1146.63 -28.5517 1146.63 -31.2051C1146.63 -33.8584 1145.57 -36.4031 1143.7 -38.2793C1141.82 -40.1555 1139.28 -41.2095 1136.63 -41.2095C1133.97 -41.2095 1131.43 -40.1555 1129.56 -38.2793C1127.68 -36.4031 1126.63 -33.8584 1126.63 -31.2051ZM1126.63 68.8396C1126.63 71.4929 1127.68 74.0376 1129.56 75.9138C1131.43 77.79 1133.97 78.844 1136.63 78.844C1139.28 78.844 1141.82 77.79 1143.7 75.9138C1145.57 74.0376 1146.63 71.4929 1146.63 68.8396C1146.63 66.1862 1145.57 63.6415 1143.7 61.7653C1141.82 59.8891 1139.28 58.8351 1136.63 58.8351C1133.97 58.8351 1131.43 59.8891 1129.56 61.7653C1127.68 63.6415 1126.63 66.1862 1126.63 68.8396ZM1040.01 118.862C1040.01 121.515 1041.07 124.06 1042.94 125.936C1044.82 127.812 1047.36 128.866 1050.01 128.866C1052.67 128.866 1055.21 127.812 1057.08 125.936C1058.96 124.06 1060.01 121.515 1060.01 118.862C1060.01 116.209 1058.96 113.664 1057.08 111.788C1055.21 109.911 1052.67 108.857 1050.01 108.857C1047.36 108.857 1044.82 109.911 1042.94 111.788C1041.07 113.664 1040.01 116.209 1040.01 118.862ZM1040.01 218.907C1040.01 221.56 1041.07 224.105 1042.94 225.981C1044.82 227.857 1047.36 228.911 1050.01 228.911C1052.67 228.911 1055.21 227.857 1057.08 225.981C1058.96 224.105 1060.01 221.56 1060.01 218.907C1060.01 216.253 1058.96 213.708 1057.08 211.832C1055.21 209.956 1052.67 208.902 1050.01 208.902C1047.36 208.902 1044.82 209.956 1042.94 211.832C1041.07 213.708 1040.01 216.253 1040.01 218.907ZM953.413 268.929C953.413 271.582 954.467 274.127 956.342 276.003C958.218 277.879 960.761 278.933 963.413 278.933C966.065 278.933 968.609 277.879 970.484 276.003C972.36 274.127 973.413 271.582 973.413 268.929C973.413 266.276 972.36 263.731 970.484 261.855C968.609 259.978 966.065 258.924 963.413 258.924C960.761 258.924 958.218 259.978 956.342 261.855C954.467 263.731 953.413 266.276 953.413 268.929ZM866.8 218.907C866.8 221.56 867.854 224.105 869.729 225.981C871.604 227.857 874.148 228.911 876.8 228.911C879.452 228.911 881.996 227.857 883.871 225.981C885.747 224.105 886.8 221.56 886.8 218.907C886.8 216.253 885.747 213.708 883.871 211.832C881.996 209.956 879.452 208.902 876.8 208.902C874.148 208.902 871.604 209.956 869.729 211.832C867.854 213.708 866.8 216.253 866.8 218.907ZM1126.61 368.973C1126.61 371.627 1127.67 374.172 1129.54 376.048C1131.42 377.924 1133.96 378.978 1136.61 378.978C1139.27 378.978 1141.81 377.924 1143.68 376.048C1145.56 374.172 1146.61 371.627 1146.61 368.973C1146.61 366.32 1145.56 363.775 1143.68 361.899C1141.81 360.023 1139.27 358.969 1136.61 358.969C1133.96 358.969 1131.42 360.023 1129.54 361.899C1127.67 363.775 1126.61 366.32 1126.61 368.973ZM1213.23 418.996C1213.23 421.649 1214.28 424.194 1216.16 426.07C1218.03 427.946 1220.57 429 1223.23 429C1225.88 429 1228.42 427.946 1230.3 426.07C1232.17 424.194 1233.23 421.649 1233.23 418.996C1233.23 416.342 1232.17 413.798 1230.3 411.922C1228.42 410.045 1225.88 408.991 1223.23 408.991C1220.57 408.991 1218.03 410.045 1216.16 411.922C1214.28 413.798 1213.23 416.342 1213.23 418.996ZM1213.23 519.04C1213.23 521.694 1214.28 524.239 1216.16 526.115C1218.03 527.991 1220.57 529.045 1223.23 529.045C1225.88 529.045 1228.42 527.991 1230.3 526.115C1232.17 524.239 1233.23 521.694 1233.23 519.04C1233.23 516.387 1232.17 513.842 1230.3 511.966C1228.42 510.09 1225.88 509.036 1223.23 509.036C1220.57 509.036 1218.03 510.09 1216.16 511.966C1214.28 513.842 1213.23 516.387 1213.23 519.04ZM1126.61 569.063C1126.61 571.716 1127.67 574.261 1129.54 576.137C1131.42 578.013 1133.96 579.067 1136.61 579.067C1139.27 579.067 1141.81 578.013 1143.68 576.137C1145.56 574.261 1146.61 571.716 1146.61 569.063C1146.61 566.409 1145.56 563.865 1143.68 561.989C1141.81 560.112 1139.27 559.058 1136.61 559.058C1133.96 559.058 1131.42 560.112 1129.54 561.989C1127.67 563.865 1126.61 566.409 1126.61 569.063ZM1040.01 519.04C1040.01 521.694 1041.07 524.239 1042.94 526.115C1044.82 527.991 1047.36 529.045 1050.01 529.045C1052.67 529.045 1055.21 527.991 1057.08 526.115C1058.96 524.239 1060.01 521.694 1060.01 519.04C1060.01 516.387 1058.96 513.842 1057.08 511.966C1055.21 510.09 1052.67 509.036 1050.01 509.036C1047.36 509.036 1044.82 510.09 1042.94 511.966C1041.07 513.842 1040.01 516.387 1040.01 519.04ZM1040.01 418.996C1040.01 421.649 1041.07 424.194 1042.94 426.07C1044.82 427.946 1047.36 429 1050.01 429C1052.67 429 1055.21 427.946 1057.08 426.07C1058.96 424.194 1060.01 421.649 1060.01 418.996C1060.01 416.342 1058.96 413.798 1057.08 411.922C1055.21 410.045 1052.67 408.991 1050.01 408.991C1047.36 408.991 1044.82 410.045 1042.94 411.922C1041.07 413.798 1040.01 416.342 1040.01 418.996ZM1299.83 569.063C1299.83 571.716 1300.88 574.261 1302.76 576.137C1304.63 578.013 1307.17 579.067 1309.83 579.067C1312.48 579.067 1315.02 578.013 1316.9 576.137C1318.77 574.261 1319.83 571.716 1319.83 569.063C1319.83 566.409 1318.77 563.865 1316.9 561.989C1315.02 560.112 1312.48 559.058 1309.83 559.058C1307.17 559.058 1304.63 560.112 1302.76 561.989C1300.88 563.865 1299.83 566.409 1299.83 569.063ZM1299.83 669.107C1299.83 671.761 1300.88 674.306 1302.76 676.182C1304.63 678.058 1307.17 679.112 1309.83 679.112C1312.48 679.112 1315.02 678.058 1316.9 676.182C1318.77 674.306 1319.83 671.761 1319.83 669.107C1319.83 666.454 1318.77 663.909 1316.9 662.033C1315.02 660.157 1312.48 659.103 1309.83 659.103C1307.17 659.103 1304.63 660.157 1302.76 662.033C1300.88 663.909 1299.83 666.454 1299.83 669.107ZM1213.23 719.13C1213.23 721.783 1214.28 724.328 1216.16 726.204C1218.03 728.08 1220.57 729.134 1223.23 729.134C1225.88 729.134 1228.42 728.08 1230.3 726.204C1232.17 724.328 1233.23 721.783 1233.23 719.13C1233.23 716.476 1232.17 713.932 1230.3 712.056C1228.42 710.179 1225.88 709.125 1223.23 709.125C1220.57 709.125 1218.03 710.179 1216.16 712.056C1214.28 713.932 1213.23 716.476 1213.23 719.13ZM1126.61 669.107C1126.61 671.761 1127.67 674.306 1129.54 676.182C1131.42 678.058 1133.96 679.112 1136.61 679.112C1139.27 679.112 1141.81 678.058 1143.68 676.182C1145.56 674.306 1146.61 671.761 1146.61 669.107C1146.61 666.454 1145.56 663.909 1143.68 662.033C1141.81 660.157 1139.27 659.103 1136.61 659.103C1133.96 659.103 1131.42 660.157 1129.54 662.033C1127.67 663.909 1126.61 666.454 1126.61 669.107ZM1299.83 -231.294C1299.83 -228.641 1300.88 -226.096 1302.76 -224.22C1304.63 -222.344 1307.17 -221.29 1309.83 -221.29C1312.48 -221.29 1315.02 -222.344 1316.9 -224.22C1318.77 -226.096 1319.83 -228.641 1319.83 -231.294C1319.83 -233.948 1318.77 -236.492 1316.9 -238.369C1315.02 -240.245 1312.48 -241.299 1309.83 -241.299C1307.17 -241.299 1304.63 -240.245 1302.76 -238.369C1300.88 -236.492 1299.83 -233.948 1299.83 -231.294ZM1386.44 -181.272C1386.44 -178.619 1387.49 -176.074 1389.37 -174.198C1391.24 -172.322 1393.79 -171.268 1396.44 -171.268C1399.09 -171.268 1401.64 -172.322 1403.51 -174.198C1405.39 -176.074 1406.44 -178.619 1406.44 -181.272C1406.44 -183.925 1405.39 -186.47 1403.51 -188.346C1401.64 -190.222 1399.09 -191.277 1396.44 -191.277C1393.79 -191.277 1391.24 -190.222 1389.37 -188.346C1387.49 -186.47 1386.44 -183.925 1386.44 -181.272ZM1386.44 -81.2274C1386.44 -78.574 1387.49 -76.0294 1389.37 -74.1532C1391.24 -72.277 1393.79 -71.2229 1396.44 -71.2229C1399.09 -71.2229 1401.64 -72.277 1403.51 -74.1532C1405.39 -76.0294 1406.44 -78.574 1406.44 -81.2274C1406.44 -83.8807 1405.39 -86.4254 1403.51 -88.3016C1401.64 -90.1778 1399.09 -91.2319 1396.44 -91.2319C1393.79 -91.2319 1391.24 -90.1778 1389.37 -88.3016C1387.49 -86.4254 1386.44 -83.8807 1386.44 -81.2274ZM1299.83 -31.2051C1299.83 -28.5517 1300.88 -26.007 1302.76 -24.1308C1304.63 -22.2546 1307.17 -21.2006 1309.83 -21.2006C1312.48 -21.2006 1315.02 -22.2546 1316.9 -24.1308C1318.77 -26.007 1319.83 -28.5517 1319.83 -31.2051C1319.83 -33.8584 1318.77 -36.4031 1316.9 -38.2793C1315.02 -40.1555 1312.48 -41.2095 1309.83 -41.2095C1307.17 -41.2095 1304.63 -40.1555 1302.76 -38.2793C1300.88 -36.4031 1299.83 -33.8584 1299.83 -31.2051ZM1213.23 -81.2274C1213.23 -78.574 1214.28 -76.0294 1216.16 -74.1532C1218.03 -72.277 1220.57 -71.2229 1223.23 -71.2229C1225.88 -71.2229 1228.42 -72.277 1230.3 -74.1532C1232.17 -76.0294 1233.23 -78.574 1233.23 -81.2274C1233.23 -83.8807 1232.17 -86.4254 1230.3 -88.3016C1228.42 -90.1778 1225.88 -91.2319 1223.23 -91.2319C1220.57 -91.2319 1218.03 -90.1778 1216.16 -88.3016C1214.28 -86.4254 1213.23 -83.8807 1213.23 -81.2274ZM1213.23 -181.272C1213.23 -178.619 1214.28 -176.074 1216.16 -174.198C1218.03 -172.322 1220.57 -171.268 1223.23 -171.268C1225.88 -171.268 1228.42 -172.322 1230.3 -174.198C1232.17 -176.074 1233.23 -178.619 1233.23 -181.272C1233.23 -183.925 1232.17 -186.47 1230.3 -188.346C1228.42 -190.222 1225.88 -191.277 1223.23 -191.277C1220.57 -191.277 1218.03 -190.222 1216.16 -188.346C1214.28 -186.47 1213.23 -183.925 1213.23 -181.272ZM1299.83 68.8396C1299.83 71.4929 1300.88 74.0376 1302.76 75.9138C1304.63 77.79 1307.17 78.844 1309.83 78.844C1312.48 78.844 1315.02 77.79 1316.9 75.9138C1318.77 74.0376 1319.83 71.4929 1319.83 68.8396C1319.83 66.1862 1318.77 63.6415 1316.9 61.7653C1315.02 59.8891 1312.48 58.8351 1309.83 58.8351C1307.17 58.8351 1304.63 59.8891 1302.76 61.7653C1300.88 63.6415 1299.83 66.1862 1299.83 68.8396ZM1386.44 118.862C1386.44 121.515 1387.49 124.06 1389.37 125.936C1391.24 127.812 1393.79 128.866 1396.44 128.866C1399.09 128.866 1401.64 127.812 1403.51 125.936C1405.39 124.06 1406.44 121.515 1406.44 118.862C1406.44 116.209 1405.39 113.664 1403.51 111.788C1401.64 109.911 1399.09 108.857 1396.44 108.857C1393.79 108.857 1391.24 109.911 1389.37 111.788C1387.49 113.664 1386.44 116.209 1386.44 118.862ZM1386.44 218.907C1386.44 221.56 1387.49 224.105 1389.37 225.981C1391.24 227.857 1393.79 228.911 1396.44 228.911C1399.09 228.911 1401.64 227.857 1403.51 225.981C1405.39 224.105 1406.44 221.56 1406.44 218.907C1406.44 216.253 1405.39 213.708 1403.51 211.832C1401.64 209.956 1399.09 208.902 1396.44 208.902C1393.79 208.902 1391.24 209.956 1389.37 211.832C1387.49 213.708 1386.44 216.253 1386.44 218.907ZM1299.83 268.929C1299.83 271.582 1300.88 274.127 1302.76 276.003C1304.63 277.879 1307.17 278.933 1309.83 278.933C1312.48 278.933 1315.02 277.879 1316.9 276.003C1318.77 274.127 1319.83 271.582 1319.83 268.929C1319.83 266.276 1318.77 263.731 1316.9 261.855C1315.02 259.978 1312.48 258.924 1309.83 258.924C1307.17 258.924 1304.63 259.978 1302.76 261.855C1300.88 263.731 1299.83 266.276 1299.83 268.929ZM1213.23 218.907C1213.23 221.56 1214.28 224.105 1216.16 225.981C1218.03 227.857 1220.57 228.911 1223.23 228.911C1225.88 228.911 1228.42 227.857 1230.3 225.981C1232.17 224.105 1233.23 221.56 1233.23 218.907C1233.23 216.253 1232.17 213.708 1230.3 211.832C1228.42 209.956 1225.88 208.902 1223.23 208.902C1220.57 208.902 1218.03 209.956 1216.16 211.832C1214.28 213.708 1213.23 216.253 1213.23 218.907ZM1213.23 118.862C1213.23 121.515 1214.28 124.06 1216.16 125.936C1218.03 127.812 1220.57 128.866 1223.23 128.866C1225.88 128.866 1228.42 127.812 1230.3 125.936C1232.17 124.06 1233.23 121.515 1233.23 118.862C1233.23 116.209 1232.17 113.664 1230.3 111.788C1228.42 109.911 1225.88 108.857 1223.23 108.857C1220.57 108.857 1218.03 109.911 1216.16 111.788C1214.28 113.664 1213.23 116.209 1213.23 118.862ZM1473.04 68.8396C1473.04 71.4929 1474.09 74.0376 1475.97 75.9138C1477.84 77.79 1480.39 78.844 1483.04 78.844C1485.69 78.844 1488.24 77.79 1490.11 75.9138C1491.99 74.0376 1493.04 71.4929 1493.04 68.8396C1493.04 66.1862 1491.99 63.6415 1490.11 61.7653C1488.24 59.8891 1485.69 58.8351 1483.04 58.8351C1480.39 58.8351 1477.84 59.8891 1475.97 61.7653C1474.09 63.6415 1473.04 66.1862 1473.04 68.8396ZM1559.64 118.862C1559.64 121.515 1560.69 124.06 1562.57 125.936C1564.44 127.812 1566.99 128.866 1569.64 128.866C1572.29 128.866 1574.84 127.812 1576.71 125.936C1578.59 124.06 1579.64 121.515 1579.64 118.862C1579.64 116.209 1578.59 113.664 1576.71 111.788C1574.84 109.911 1572.29 108.857 1569.64 108.857C1566.99 108.857 1564.44 109.911 1562.57 111.788C1560.69 113.664 1559.64 116.209 1559.64 118.862ZM1559.64 218.907C1559.64 221.56 1560.69 224.105 1562.57 225.981C1564.44 227.857 1566.99 228.911 1569.64 228.911C1572.29 228.911 1574.84 227.857 1576.71 225.981C1578.59 224.105 1579.64 221.56 1579.64 218.907C1579.64 216.253 1578.59 213.708 1576.71 211.832C1574.84 209.956 1572.29 208.902 1569.64 208.902C1566.99 208.902 1564.44 209.956 1562.57 211.832C1560.69 213.708 1559.64 216.253 1559.64 218.907ZM1473.04 268.929C1473.04 271.582 1474.09 274.127 1475.97 276.003C1477.84 277.879 1480.39 278.933 1483.04 278.933C1485.69 278.933 1488.24 277.879 1490.11 276.003C1491.99 274.127 1493.04 271.582 1493.04 268.929C1493.04 266.276 1491.99 263.731 1490.11 261.855C1488.24 259.978 1485.69 258.924 1483.04 258.924C1480.39 258.924 1477.84 259.978 1475.97 261.855C1474.09 263.731 1473.04 266.276 1473.04 268.929ZM1473.04 368.973C1473.04 371.627 1474.09 374.172 1475.97 376.048C1477.84 377.924 1480.39 378.978 1483.04 378.978C1485.69 378.978 1488.24 377.924 1490.11 376.048C1491.99 374.172 1493.04 371.627 1493.04 368.973C1493.04 366.32 1491.99 363.775 1490.11 361.899C1488.24 360.023 1485.69 358.969 1483.04 358.969C1480.39 358.969 1477.84 360.023 1475.97 361.899C1474.09 363.775 1473.04 366.32 1473.04 368.973ZM1559.64 418.996C1559.64 421.649 1560.69 424.194 1562.57 426.07C1564.44 427.946 1566.99 429 1569.64 429C1572.29 429 1574.84 427.946 1576.71 426.07C1578.59 424.194 1579.64 421.649 1579.64 418.996C1579.64 416.342 1578.59 413.798 1576.71 411.922C1574.84 410.045 1572.29 408.991 1569.64 408.991C1566.99 408.991 1564.44 410.045 1562.57 411.922C1560.69 413.798 1559.64 416.342 1559.64 418.996ZM1559.64 519.04C1559.64 521.694 1560.69 524.239 1562.57 526.115C1564.44 527.991 1566.99 529.045 1569.64 529.045C1572.29 529.045 1574.84 527.991 1576.71 526.115C1578.59 524.239 1579.64 521.694 1579.64 519.04C1579.64 516.387 1578.59 513.842 1576.71 511.966C1574.84 510.09 1572.29 509.036 1569.64 509.036C1566.99 509.036 1564.44 510.09 1562.57 511.966C1560.69 513.842 1559.64 516.387 1559.64 519.04ZM1473.04 569.063C1473.04 571.716 1474.09 574.261 1475.97 576.137C1477.84 578.013 1480.39 579.067 1483.04 579.067C1485.69 579.067 1488.24 578.013 1490.11 576.137C1491.99 574.261 1493.04 571.716 1493.04 569.063C1493.04 566.409 1491.99 563.865 1490.11 561.989C1488.24 560.112 1485.69 559.058 1483.04 559.058C1480.39 559.058 1477.84 560.112 1475.97 561.989C1474.09 563.865 1473.04 566.409 1473.04 569.063ZM1386.44 519.04C1386.44 521.694 1387.49 524.239 1389.37 526.115C1391.24 527.991 1393.79 529.045 1396.44 529.045C1399.09 529.045 1401.64 527.991 1403.51 526.115C1405.39 524.239 1406.44 521.694 1406.44 519.04C1406.44 516.387 1405.39 513.842 1403.51 511.966C1401.64 510.09 1399.09 509.036 1396.44 509.036C1393.79 509.036 1391.24 510.09 1389.37 511.966C1387.49 513.842 1386.44 516.387 1386.44 519.04ZM1386.44 418.996C1386.44 421.649 1387.49 424.194 1389.37 426.07C1391.24 427.946 1393.79 429 1396.44 429C1399.09 429 1401.64 427.946 1403.51 426.07C1405.39 424.194 1406.44 421.649 1406.44 418.996C1406.44 416.342 1405.39 413.798 1403.51 411.922C1401.64 410.045 1399.09 408.991 1396.44 408.991C1393.79 408.991 1391.24 410.045 1389.37 411.922C1387.49 413.798 1386.44 416.342 1386.44 418.996ZM1732.85 -81.2274C1732.85 -78.574 1733.91 -76.0294 1735.78 -74.1532C1737.66 -72.277 1740.2 -71.2229 1742.85 -71.2229C1745.51 -71.2229 1748.05 -72.277 1749.92 -74.1532C1751.8 -76.0294 1752.85 -78.574 1752.85 -81.2274C1752.85 -83.8807 1751.8 -86.4254 1749.92 -88.3016C1748.05 -90.1778 1745.51 -91.2319 1742.85 -91.2319C1740.2 -91.2319 1737.66 -90.1778 1735.78 -88.3016C1733.91 -86.4254 1732.85 -83.8807 1732.85 -81.2274ZM1819.45 -31.2051C1819.45 -28.5517 1820.51 -26.007 1822.38 -24.1308C1824.26 -22.2546 1826.8 -21.2006 1829.45 -21.2006C1832.11 -21.2006 1834.65 -22.2546 1836.52 -24.1308C1838.4 -26.007 1839.45 -28.5517 1839.45 -31.2051C1839.45 -33.8584 1838.4 -36.4031 1836.52 -38.2793C1834.65 -40.1555 1832.11 -41.2095 1829.45 -41.2095C1826.8 -41.2095 1824.26 -40.1555 1822.38 -38.2793C1820.51 -36.4031 1819.45 -33.8584 1819.45 -31.2051ZM1819.45 68.8396C1819.45 71.4929 1820.51 74.0376 1822.38 75.9138C1824.26 77.79 1826.8 78.844 1829.45 78.844C1832.11 78.844 1834.65 77.79 1836.52 75.9138C1838.4 74.0376 1839.45 71.4929 1839.45 68.8396C1839.45 66.1862 1838.4 63.6415 1836.52 61.7653C1834.65 59.8891 1832.11 58.8351 1829.45 58.8351C1826.8 58.8351 1824.26 59.8891 1822.38 61.7653C1820.51 63.6415 1819.45 66.1862 1819.45 68.8396ZM1732.85 118.862C1732.85 121.515 1733.91 124.06 1735.78 125.936C1737.66 127.812 1740.2 128.866 1742.85 128.866C1745.51 128.866 1748.05 127.812 1749.92 125.936C1751.8 124.06 1752.85 121.515 1752.85 118.862C1752.85 116.209 1751.8 113.664 1749.92 111.788C1748.05 109.911 1745.51 108.857 1742.85 108.857C1740.2 108.857 1737.66 109.911 1735.78 111.788C1733.91 113.664 1732.85 116.209 1732.85 118.862ZM1646.25 68.8396C1646.25 71.4929 1647.31 74.0376 1649.18 75.9138C1651.06 77.79 1653.6 78.844 1656.25 78.844C1658.91 78.844 1661.45 77.79 1663.32 75.9138C1665.2 74.0376 1666.25 71.4929 1666.25 68.8396C1666.25 66.1862 1665.2 63.6415 1663.32 61.7653C1661.45 59.8891 1658.91 58.8351 1656.25 58.8351C1653.6 58.8351 1651.06 59.8891 1649.18 61.7653C1647.31 63.6415 1646.25 66.1862 1646.25 68.8396ZM1646.25 -31.2051C1646.25 -28.5517 1647.31 -26.007 1649.18 -24.1308C1651.06 -22.2546 1653.6 -21.2006 1656.25 -21.2006C1658.91 -21.2006 1661.45 -22.2546 1663.32 -24.1308C1665.2 -26.007 1666.25 -28.5517 1666.25 -31.2051C1666.25 -33.8584 1665.2 -36.4031 1663.32 -38.2793C1661.45 -40.1555 1658.91 -41.2095 1656.25 -41.2095C1653.6 -41.2095 1651.06 -40.1555 1649.18 -38.2793C1647.31 -36.4031 1646.25 -33.8584 1646.25 -31.2051ZM1646.25 368.973C1646.25 371.627 1647.31 374.172 1649.18 376.048C1651.06 377.924 1653.6 378.978 1656.25 378.978C1658.91 378.978 1661.45 377.924 1663.32 376.048C1665.2 374.172 1666.25 371.627 1666.25 368.973C1666.25 366.32 1665.2 363.775 1663.32 361.899C1661.45 360.023 1658.91 358.969 1656.25 358.969C1653.6 358.969 1651.06 360.023 1649.18 361.899C1647.31 363.775 1646.25 366.32 1646.25 368.973ZM1732.85 418.996C1732.85 421.649 1733.91 424.194 1735.78 426.07C1737.66 427.946 1740.2 429 1742.85 429C1745.51 429 1748.05 427.946 1749.92 426.07C1751.8 424.194 1752.85 421.649 1752.85 418.996C1752.85 416.342 1751.8 413.798 1749.92 411.922C1748.05 410.045 1745.51 408.991 1742.85 408.991C1740.2 408.991 1737.66 410.045 1735.78 411.922C1733.91 413.798 1732.85 416.342 1732.85 418.996ZM1732.85 519.04C1732.85 521.694 1733.91 524.239 1735.78 526.115C1737.66 527.991 1740.2 529.045 1742.85 529.045C1745.51 529.045 1748.05 527.991 1749.92 526.115C1751.8 524.239 1752.85 521.694 1752.85 519.04C1752.85 516.387 1751.8 513.842 1749.92 511.966C1748.05 510.09 1745.51 509.036 1742.85 509.036C1740.2 509.036 1737.66 510.09 1735.78 511.966C1733.91 513.842 1732.85 516.387 1732.85 519.04ZM1646.25 569.063C1646.25 571.716 1647.31 574.261 1649.18 576.137C1651.06 578.013 1653.6 579.067 1656.25 579.067C1658.91 579.067 1661.45 578.013 1663.32 576.137C1665.2 574.261 1666.25 571.716 1666.25 569.063C1666.25 566.409 1665.2 563.865 1663.32 561.989C1661.45 560.112 1658.91 559.058 1656.25 559.058C1653.6 559.058 1651.06 560.112 1649.18 561.989C1647.31 563.865 1646.25 566.409 1646.25 569.063ZM1819.47 68.8396C1819.47 71.4929 1820.52 74.0376 1822.4 75.9138C1824.27 77.79 1826.81 78.844 1829.47 78.844C1832.12 78.844 1834.66 77.79 1836.54 75.9138C1838.41 74.0376 1839.47 71.4929 1839.47 68.8396C1839.47 66.1862 1838.41 63.6415 1836.54 61.7653C1834.66 59.8891 1832.12 58.8351 1829.47 58.8351C1826.81 58.8351 1824.27 59.8891 1822.4 61.7653C1820.52 63.6415 1819.47 66.1862 1819.47 68.8396ZM1906.07 118.862C1906.07 121.515 1907.12 124.06 1909 125.936C1910.87 127.812 1913.41 128.866 1916.07 128.866C1918.72 128.866 1921.26 127.812 1923.14 125.936C1925.01 124.06 1926.07 121.515 1926.07 118.862C1926.07 116.209 1925.01 113.664 1923.14 111.788C1921.26 109.911 1918.72 108.857 1916.07 108.857C1913.41 108.857 1910.87 109.911 1909 111.788C1907.12 113.664 1906.07 116.209 1906.07 118.862ZM1906.07 218.907C1906.07 221.56 1907.12 224.105 1909 225.981C1910.87 227.857 1913.41 228.911 1916.07 228.911C1918.72 228.911 1921.26 227.857 1923.14 225.981C1925.01 224.105 1926.07 221.56 1926.07 218.907C1926.07 216.253 1925.01 213.708 1923.14 211.832C1921.26 209.956 1918.72 208.902 1916.07 208.902C1913.41 208.902 1910.87 209.956 1909 211.832C1907.12 213.708 1906.07 216.253 1906.07 218.907ZM1819.47 268.929C1819.47 271.582 1820.52 274.127 1822.4 276.003C1824.27 277.879 1826.81 278.933 1829.47 278.933C1832.12 278.933 1834.66 277.879 1836.54 276.003C1838.41 274.127 1839.47 271.582 1839.47 268.929C1839.47 266.276 1838.41 263.731 1836.54 261.855C1834.66 259.978 1832.12 258.924 1829.47 258.924C1826.81 258.924 1824.27 259.978 1822.4 261.855C1820.52 263.731 1819.47 266.276 1819.47 268.929ZM1732.85 218.907C1732.85 221.56 1733.91 224.105 1735.78 225.981C1737.66 227.857 1740.2 228.911 1742.85 228.911C1745.51 228.911 1748.05 227.857 1749.92 225.981C1751.8 224.105 1752.85 221.56 1752.85 218.907C1752.85 216.253 1751.8 213.708 1749.92 211.832C1748.05 209.956 1745.51 208.902 1742.85 208.902C1740.2 208.902 1737.66 209.956 1735.78 211.832C1733.91 213.708 1732.85 216.253 1732.85 218.907ZM2079.28 218.907C2079.28 221.56 2080.33 224.105 2082.21 225.981C2084.08 227.857 2086.63 228.911 2089.28 228.911C2091.93 228.911 2094.48 227.857 2096.35 225.981C2098.23 224.105 2099.28 221.56 2099.28 218.907C2099.28 216.253 2098.23 213.708 2096.35 211.832C2094.48 209.956 2091.93 208.902 2089.28 208.902C2086.63 208.902 2084.08 209.956 2082.21 211.832C2080.33 213.708 2079.28 216.253 2079.28 218.907ZM2165.88 268.929C2165.88 271.582 2166.93 274.127 2168.81 276.003C2170.68 277.879 2173.23 278.933 2175.88 278.933C2178.53 278.933 2181.08 277.879 2182.95 276.003C2184.83 274.127 2185.88 271.582 2185.88 268.929C2185.88 266.276 2184.83 263.731 2182.95 261.855C2181.08 259.978 2178.53 258.924 2175.88 258.924C2173.23 258.924 2170.68 259.978 2168.81 261.855C2166.93 263.731 2165.88 266.276 2165.88 268.929ZM2165.88 368.973C2165.88 371.627 2166.93 374.172 2168.81 376.048C2170.68 377.924 2173.23 378.978 2175.88 378.978C2178.53 378.978 2181.08 377.924 2182.95 376.048C2184.83 374.172 2185.88 371.627 2185.88 368.973C2185.88 366.32 2184.83 363.775 2182.95 361.899C2181.08 360.023 2178.53 358.969 2175.88 358.969C2173.23 358.969 2170.68 360.023 2168.81 361.899C2166.93 363.775 2165.88 366.32 2165.88 368.973ZM2079.28 418.996C2079.28 421.649 2080.33 424.194 2082.21 426.07C2084.08 427.946 2086.63 429 2089.28 429C2091.93 429 2094.48 427.946 2096.35 426.07C2098.23 424.194 2099.28 421.649 2099.28 418.996C2099.28 416.342 2098.23 413.798 2096.35 411.922C2094.48 410.045 2091.93 408.991 2089.28 408.991C2086.63 408.991 2084.08 410.045 2082.21 411.922C2080.33 413.798 2079.28 416.342 2079.28 418.996ZM1992.67 368.973C1992.67 371.627 1993.72 374.172 1995.6 376.048C1997.47 377.924 2000.01 378.978 2002.67 378.978C2005.32 378.978 2007.86 377.924 2009.74 376.048C2011.61 374.172 2012.67 371.627 2012.67 368.973C2012.67 366.32 2011.61 363.775 2009.74 361.899C2007.86 360.023 2005.32 358.969 2002.67 358.969C2000.01 358.969 1997.47 360.023 1995.6 361.899C1993.72 363.775 1992.67 366.32 1992.67 368.973ZM1992.67 268.929C1992.67 271.582 1993.72 274.127 1995.6 276.003C1997.47 277.879 2000.01 278.933 2002.67 278.933C2005.32 278.933 2007.86 277.879 2009.74 276.003C2011.61 274.127 2012.67 271.582 2012.67 268.929C2012.67 266.276 2011.61 263.731 2009.74 261.855C2007.86 259.978 2005.32 258.924 2002.67 258.924C2000.01 258.924 1997.47 259.978 1995.6 261.855C1993.72 263.731 1992.67 266.276 1992.67 268.929ZM2079.28 519.04C2079.28 521.694 2080.33 524.239 2082.21 526.115C2084.08 527.991 2086.63 529.045 2089.28 529.045C2091.93 529.045 2094.48 527.991 2096.35 526.115C2098.23 524.239 2099.28 521.694 2099.28 519.04C2099.28 516.387 2098.23 513.842 2096.35 511.966C2094.48 510.09 2091.93 509.036 2089.28 509.036C2086.63 509.036 2084.08 510.09 2082.21 511.966C2080.33 513.842 2079.28 516.387 2079.28 519.04ZM2165.88 569.063C2165.88 571.716 2166.93 574.261 2168.81 576.137C2170.68 578.013 2173.23 579.067 2175.88 579.067C2178.53 579.067 2181.08 578.013 2182.95 576.137C2184.83 574.261 2185.88 571.716 2185.88 569.063C2185.88 566.409 2184.83 563.865 2182.95 561.989C2181.08 560.112 2178.53 559.058 2175.88 559.058C2173.23 559.058 2170.68 560.112 2168.81 561.989C2166.93 563.865 2165.88 566.409 2165.88 569.063ZM2165.88 669.107C2165.88 671.761 2166.93 674.306 2168.81 676.182C2170.68 678.058 2173.23 679.112 2175.88 679.112C2178.53 679.112 2181.08 678.058 2182.95 676.182C2184.83 674.306 2185.88 671.761 2185.88 669.107C2185.88 666.454 2184.83 663.909 2182.95 662.033C2181.08 660.157 2178.53 659.103 2175.88 659.103C2173.23 659.103 2170.68 660.157 2168.81 662.033C2166.93 663.909 2165.88 666.454 2165.88 669.107ZM2079.28 719.13C2079.28 721.783 2080.33 724.328 2082.21 726.204C2084.08 728.08 2086.63 729.134 2089.28 729.134C2091.93 729.134 2094.48 728.08 2096.35 726.204C2098.23 724.328 2099.28 721.783 2099.28 719.13C2099.28 716.476 2098.23 713.932 2096.35 712.056C2094.48 710.179 2091.93 709.125 2089.28 709.125C2086.63 709.125 2084.08 710.179 2082.21 712.056C2080.33 713.932 2079.28 716.476 2079.28 719.13ZM1992.67 669.107C1992.67 671.761 1993.72 674.306 1995.6 676.182C1997.47 678.058 2000.01 679.112 2002.67 679.112C2005.32 679.112 2007.86 678.058 2009.74 676.182C2011.61 674.306 2012.67 671.761 2012.67 669.107C2012.67 666.454 2011.61 663.909 2009.74 662.033C2007.86 660.157 2005.32 659.103 2002.67 659.103C2000.01 659.103 1997.47 660.157 1995.6 662.033C1993.72 663.909 1992.67 666.454 1992.67 669.107ZM1992.67 569.063C1992.67 571.716 1993.72 574.261 1995.6 576.137C1997.47 578.013 2000.01 579.067 2002.67 579.067C2005.32 579.067 2007.86 578.013 2009.74 576.137C2011.61 574.261 2012.67 571.716 2012.67 569.063C2012.67 566.409 2011.61 563.865 2009.74 561.989C2007.86 560.112 2005.32 559.058 2002.67 559.058C2000.01 559.058 1997.47 560.112 1995.6 561.989C1993.72 563.865 1992.67 566.409 1992.67 569.063Z" fill="#245929"/>
<path d="M128.987 545.959V481.931L73.56 449.916L18.1333 481.931V545.959M128.987 545.959L73.56 577.973M128.987 545.959L184.413 577.973M73.56 577.973L18.1333 545.959M73.56 577.973V642.002M18.1333 545.959L-37.2933 577.973V642.002L18.1333 674.016L73.56 642.002M73.56 642.002L128.987 674.016L184.413 642.002M184.413 -190.369L128.987 -222.384L73.56 -190.369V-126.341L128.987 -94.3265L184.413 -126.341M184.413 -190.369V-126.341M184.413 -190.369L239.84 -222.384L295.267 -190.369M184.413 -126.341L239.84 -94.3265L295.267 -126.341M184.413 257.831V193.802L128.987 161.788L73.56 193.802V257.831L128.987 289.845M184.413 257.831L128.987 289.845M184.413 257.831L239.84 289.845V353.873M128.987 289.845V353.873L184.413 385.888M239.84 353.873L184.413 385.888M239.84 353.873L295.267 385.888M184.413 385.888V449.916L239.84 481.931M184.413 577.973V642.002M184.413 577.973L239.84 545.959M184.413 642.002L239.84 674.016L295.267 642.002V577.973M295.267 -190.369V-126.341M295.267 -190.369L350.693 -222.384L406.12 -190.369V-126.341L350.693 -94.3265L295.267 -126.341M295.267 65.7449V1.71634L239.84 -30.298L184.413 1.71634V65.7449L239.84 97.7592M295.267 65.7449L239.84 97.7592M295.267 65.7449L350.693 97.7592V161.788L295.267 193.802L239.84 161.788V97.7592M295.267 385.888V449.916M295.267 385.888L350.693 353.873L406.12 385.888V449.916L350.693 481.931M295.267 449.916L239.84 481.931M295.267 449.916L350.693 481.931M239.84 481.931V545.959M350.693 481.931V545.959L295.267 577.973M295.267 577.973L239.84 545.959M516.973 65.7449L572.4 97.7592M516.973 65.7449L461.547 97.7592V161.788L516.973 193.802L572.4 161.788M516.973 65.7449V1.71634L572.4 -30.298M572.4 97.7592V161.788M572.4 97.7592L627.827 65.7449M572.4 161.788L627.827 193.802M572.4 289.845L516.973 257.831L461.547 289.845V353.873L516.973 385.888M572.4 289.845V353.873M572.4 289.845L627.827 257.831M572.4 353.873L516.973 385.888M572.4 353.873L627.827 385.888M516.973 385.888V449.916M516.973 449.916L572.4 481.931M516.973 449.916L461.547 481.931V545.959M572.4 481.931V545.959L516.973 577.973M572.4 481.931L627.827 449.916V385.888M516.973 577.973L461.547 545.959M516.973 577.973V642.002L461.547 674.016L406.12 642.002V577.973L461.547 545.959M627.827 -126.341V-190.369L572.4 -222.384L516.973 -190.369V-126.341L572.4 -94.3265M627.827 -126.341L572.4 -94.3265M627.827 -126.341L683.253 -94.3265M572.4 -94.3265V-30.298M683.253 -94.3265V-30.298M683.253 -94.3265L738.693 -126.341L794.12 -94.3265V-30.298L738.693 1.71634L683.253 -30.298M683.253 -30.298L627.827 1.71634M627.827 1.71634L572.4 -30.298M627.827 1.71634V65.7449M627.827 65.7449L683.253 97.7592V161.788M683.253 161.788L627.827 193.802M683.253 161.788L738.693 193.802V257.831L683.253 289.845M627.827 193.802V257.831M627.827 257.831L683.253 289.845M683.253 289.845V353.873L627.827 385.888M849.547 257.831L904.973 289.845M849.547 257.831L794.12 289.845V353.873L849.547 385.888M849.547 257.831V193.802L904.973 161.788M904.973 289.845V353.873M904.973 289.845L960.4 257.831M904.973 353.873L849.547 385.888M904.973 353.873L960.4 385.888M849.547 385.888V449.916L904.973 481.931L960.4 449.916V385.888M960.4 -126.341L1015.83 -94.3265M960.4 -126.341L904.973 -94.3265V-30.298L960.4 1.71634L1015.83 -30.298M960.4 -126.341V-190.369L1015.83 -222.384L1071.25 -190.369V-126.341M1015.83 -94.3265V-30.298M1015.83 -94.3265L1071.25 -126.341M1015.83 -30.298L1071.25 1.71634L1126.68 -30.298M1015.83 97.7592L960.4 65.7449L904.973 97.7592V161.788M1015.83 97.7592V161.788M1015.83 97.7592L1071.25 65.7449L1126.68 97.7592V161.788M1015.83 161.788L960.4 193.802M1015.83 161.788L1071.25 193.802M960.4 193.802L904.973 161.788M960.4 193.802V257.831M960.4 257.831L1015.83 289.845V353.873L960.4 385.888M1071.25 -126.341L1126.68 -94.3265M1126.68 -94.3265V-30.298M1126.68 -94.3265L1182.11 -126.341L1237.53 -94.3265M1126.68 -30.298L1182.11 1.71634L1237.53 -30.298M1126.68 161.788L1071.25 193.802M1126.68 161.788L1182.11 193.802M1071.25 193.802V257.831L1126.68 289.845L1182.11 257.831M1071.25 577.973L1015.83 545.959L960.4 577.973V642.002L1015.83 674.016L1071.25 642.002M1071.25 577.973V642.002M1071.25 577.973L1126.68 545.959M1071.25 642.002L1126.68 674.016L1182.11 642.002V577.973M1237.53 -94.3265V-30.298M1237.53 -94.3265L1292.96 -126.341M1237.53 -30.298L1292.96 1.71634M1182.11 193.802V257.831M1182.11 193.802L1237.53 161.788L1292.96 193.802M1182.11 257.831L1237.53 289.845L1292.96 257.831M1182.11 385.888L1126.68 353.873L1071.25 385.888V449.916L1126.68 481.931M1182.11 385.888V449.916M1182.11 385.888L1237.53 353.873L1292.96 385.888V449.916L1237.53 481.931M1182.11 449.916L1126.68 481.931M1182.11 449.916L1237.53 481.931M1126.68 481.931V545.959M1237.53 481.931V545.959L1182.11 577.973M1182.11 577.973L1126.68 545.959M1292.96 -126.341L1348.39 -94.3265M1292.96 -126.341V-190.369L1348.39 -222.384L1403.81 -190.369V-126.341L1348.39 -94.3265M1348.39 -94.3265V-30.298M1348.39 -30.298L1292.96 1.71634M1348.39 -30.298L1403.81 1.71634V65.7449M1292.96 1.71634V65.7449L1348.39 97.7592M1292.96 193.802V257.831M1292.96 193.802L1348.39 161.788M1292.96 257.831L1348.39 289.845M1403.81 65.7449L1348.39 97.7592M1403.81 65.7449L1459.24 97.7592M1348.39 97.7592V161.788M1459.24 97.7592V161.788M1459.24 97.7592L1514.67 65.7449L1570.09 97.7592V161.788M1459.24 161.788L1403.81 193.802M1459.24 161.788L1514.67 193.802M1403.81 193.802L1348.39 161.788M1403.81 193.802V257.831M1403.81 257.831L1348.39 289.845M1403.81 257.831L1459.24 289.845V353.873M1348.39 289.845V353.873L1403.81 385.888M1459.24 353.873L1403.81 385.888M1459.24 353.873L1514.67 385.888M1403.81 385.888V449.916M1403.81 449.916L1459.24 481.931M1403.81 449.916L1348.39 481.931V545.959M1459.24 481.931V545.959M1459.24 481.931L1514.67 449.916M1459.24 545.959L1403.81 577.973M1459.24 545.959L1514.67 577.973V642.002L1459.24 674.016L1403.81 642.002M1403.81 577.973L1348.39 545.959M1403.81 577.973V642.002M1348.39 545.959L1292.96 577.973V642.002L1348.39 674.016L1403.81 642.002M1570.09 161.788L1514.67 193.802M1570.09 161.788L1625.52 193.802V257.831L1570.09 289.845L1514.67 257.831V193.802M1514.67 385.888V449.916M1514.67 385.888L1570.09 353.873L1625.52 385.888V449.916M1514.67 449.916L1570.09 481.931M1625.52 449.916L1570.09 481.931M1625.52 449.916L1680.95 481.931M1570.09 481.931V545.959L1625.52 577.973L1680.95 545.959M1680.95 481.931V545.959M1680.95 481.931L1736.37 449.916L1791.8 481.931V545.959L1736.37 577.973L1680.95 545.959M1736.37 -126.341L1791.8 -94.3265M1736.37 -126.341L1680.95 -94.3265V-30.298L1736.37 1.71634M1736.37 -126.341V-190.369L1791.8 -222.384L1847.23 -190.369V-126.341L1791.8 -94.3265M1791.8 -94.3265V-30.298M1791.8 -30.298L1736.37 1.71634M1791.8 -30.298L1847.23 1.71634V65.7449L1791.8 97.7592L1736.37 65.7449V1.71634M18.1333 -30.298L73.56 1.71634V65.7449L18.1333 97.7592L-37.2933 65.7449V1.71634L18.1333 -30.298ZM794.12 545.959L849.547 577.973V642.002L794.12 674.016L738.693 642.002V577.973L794.12 545.959ZM1514.67 -126.341L1570.09 -94.3265V-30.298L1514.67 1.71634L1459.24 -30.298V-94.3265L1514.67 -126.341ZM1958.08 65.7449L2013.51 97.7592V161.788L1958.08 193.802L1902.65 161.788V97.7592L1958.08 65.7449Z" stroke="#3D9845" stroke-width="2"/>
</g>
</g>
<defs>
<filter id="filter0_f_29_99" x="-17" y="-214" width="1950" height="777" filterUnits="userSpaceOnUse" color-interpolation-filters="sRGB">
<feFlood flood-opacity="0" result="BackgroundImageFix"/>
<feBlend mode="normal" in="SourceGraphic" in2="BackgroundImageFix" result="shape"/>
<feGaussianBlur stdDeviation="7.5" result="effect1_foregroundBlur_29_99"/>
</filter>
<clipPath id="clip0_29_99">
<rect width="1920" height="747" fill="white" transform="translate(-2 -199)"/>
</clipPath>
</defs>
</svg>
