<?xml version="1.0" encoding="UTF-8"?>
<!DOCTYPE svg PUBLIC "-//W3C//DTD SVG 1.1//EN" "http://www.w3.org/Graphics/SVG/1.1/DTD/svg11.dtd">
<!-- Creator: CorelDRAW 2021.5 -->
<svg xmlns="http://www.w3.org/2000/svg" xml:space="preserve" width="79.3946mm" height="79.395mm" version="1.1" style="shape-rendering:geometricPrecision; text-rendering:geometricPrecision; image-rendering:optimizeQuality; fill-rule:evenodd; clip-rule:evenodd"
viewBox="0 0 1592.85 1592.86"
 xmlns:xlink="http://www.w3.org/1999/xlink"
 xmlns:xodm="http://www.corel.com/coreldraw/odm/2003">
 <defs>
  <style type="text/css">
   <![CDATA[
    .fil0 {fill:#474443;fill-rule:nonzero}
   ]]>
  </style>
 </defs>
 <g id="Layer_x0020_1">
  <metadata id="CorelCorpID_0Corel-Layer"/>
  <path class="fil0" d="M1496.33 201.26c4.52,-4.29 7.35,-6.99 7.94,-7.58l84.21 -59.39 -0 -0 0.27 -0.27 -0 -0 0.26 -0.28 -0 -0 0.25 -0.28 -0 -0 0.25 -0.29 -0 0 0.23 -0.29 -0 0 0.23 -0.3 -0 -0 0.22 -0.3 -0 -0 0.21 -0.31 -0 0 0.2 -0.31 -0 0 0.19 -0.31 -0 0 0.18 -0.32 -0 0 0.18 -0.32 -0 -0c0.17,-0.33 0.33,-0.65 0.48,-0.99l-0 -0c2.33,-5.35 1.37,-11.78 -2.86,-16.19l-0.21 -0.22 -0.06 -0.06 -108.87 -108.87 -0.06 -0.06 -0.22 -0.21c-4.41,-4.24 -10.84,-5.2 -16.19,-2.86l-0 -0c-0.33,0.14 -0.66,0.3 -0.99,0.48l-0 -0 -0.32 0.18 0 -0 -0.32 0.18 0 -0 -0.31 0.19 0 -0 -0.31 0.2 0 -0 -0.31 0.21 -0 -0 -0.3 0.22 -0 -0 -0.3 0.23 0 -0 -0.29 0.23 0 -0 -0.29 0.25 -0 -0 -0.28 0.25 -0 -0 -0.28 0.26 -0 -0 -0.27 0.27 -0 -0 -59.39 84.21c-0.59,0.59 -3.29,3.42 -7.58,7.94l-246.3 258.13c-6.34,6.48 -12.1,12.32 -16.94,17.16 -99.62,99.62 -342.73,34.46 -592.72,99.39 -120.12,31.25 -343.29,103.27 -474.04,308.82 -158.51,249.27 25.38,490.55 143.05,608.23 117.62,117.62 358.91,301.51 608.18,143 205.55,-130.75 277.58,-353.92 308.83,-474.04 64.93,-249.98 -0.22,-493.1 99.4,-592.72 4.85,-4.85 10.68,-10.61 17.16,-16.95l258.13 -246.3zm-1274.98 982.51c-10.25,-10.25 -10.25,-26.87 0,-37.12 10.25,-10.25 26.87,-10.25 37.12,0 10.25,10.25 10.25,26.87 0,37.12 -10.25,10.25 -26.87,10.25 -37.12,0zm57.64 -57.64c-10.25,-10.25 -10.25,-26.87 0,-37.12 10.25,-10.25 26.87,-10.25 37.12,0 10.25,10.25 10.25,26.87 0,37.12 -10.25,10.25 -26.87,10.25 -37.12,0zm57.64 -57.64c-10.25,-10.25 -10.25,-26.87 0,-37.12 10.25,-10.25 26.87,-10.25 37.13,-0 10.25,10.25 10.25,26.87 -0,37.12 -10.25,10.25 -26.87,10.25 -37.12,0zm57.64 -57.64c-10.25,-10.25 -10.25,-26.87 0,-37.12 10.25,-10.25 26.87,-10.25 37.12,0 10.25,10.25 10.25,26.87 0,37.12 -10.25,10.25 -26.87,10.25 -37.12,0zm57.64 -57.64c-10.25,-10.25 -10.25,-26.87 0,-37.12 10.25,-10.25 26.87,-10.25 37.12,0 10.25,10.25 10.25,26.87 0,37.12 -10.25,10.25 -26.87,10.25 -37.12,0zm57.64 -57.64c-10.25,-10.25 -10.25,-26.87 0,-37.12 10.25,-10.25 26.87,-10.25 37.13,-0 10.25,10.25 10.25,26.87 -0,37.12 -10.25,10.25 -26.87,10.25 -37.12,0zm57.64 -57.64c-10.25,-10.25 -10.25,-26.87 0,-37.12 10.25,-10.25 26.87,-10.25 37.12,0 10.25,10.25 10.25,26.87 0,37.12 -10.25,10.25 -26.87,10.25 -37.12,0zm52.4 -52.4c-10.25,-10.25 -10.25,-26.87 0,-37.12 10.25,-10.25 26.87,-10.25 37.12,0 10.25,10.25 10.25,26.87 0,37.12 -10.25,10.25 -26.87,10.25 -37.12,0zm-335.66 460.83c-10.25,-10.25 -10.25,-26.87 0,-37.12 10.25,-10.25 26.87,-10.25 37.12,0 10.25,10.25 10.25,26.87 0,37.12 -10.25,10.25 -26.88,10.25 -37.13,0zm57.64 -57.64c-10.25,-10.25 -10.25,-26.87 0,-37.12 10.25,-10.25 26.87,-10.25 37.12,0 10.25,10.25 10.25,26.87 0,37.13 -10.25,10.25 -26.87,10.25 -37.12,-0zm57.64 -57.64c-10.25,-10.25 -10.25,-26.87 0,-37.12 10.25,-10.25 26.87,-10.25 37.13,-0 10.25,10.25 10.25,26.87 0,37.13 -10.25,10.25 -26.87,10.25 -37.13,-0zm57.64 -57.64c-10.25,-10.25 -10.25,-26.87 0,-37.12 10.25,-10.25 26.87,-10.25 37.12,0 10.25,10.25 10.25,26.87 0,37.12 -10.25,10.25 -26.88,10.25 -37.13,0zm57.64 -57.64c-10.25,-10.25 -10.25,-26.87 0,-37.12 10.25,-10.25 26.87,-10.25 37.12,0 10.25,10.25 10.25,26.87 0,37.13 -10.25,10.25 -26.87,10.25 -37.12,-0zm57.64 -57.64c-10.25,-10.25 -10.25,-26.87 0,-37.12 10.25,-10.25 26.87,-10.25 37.13,-0 10.25,10.25 10.25,26.87 0,37.13 -10.25,10.25 -26.87,10.25 -37.13,-0zm57.64 -57.64c-10.25,-10.25 -10.25,-26.87 0,-37.12 10.25,-10.25 26.87,-10.25 37.12,0 10.25,10.25 10.25,26.87 0,37.12 -10.25,10.25 -26.88,10.25 -37.13,0zm52.4 -52.4c-10.25,-10.25 -10.25,-26.87 0,-37.12 10.25,-10.25 26.87,-10.25 37.12,0 10.25,10.25 10.25,26.87 0,37.13 -10.25,10.25 -26.87,10.25 -37.12,-0zm-335.67 460.83c-10.25,-10.25 -10.25,-26.87 0,-37.12 10.25,-10.25 26.87,-10.25 37.12,0 10.25,10.25 10.25,26.87 0,37.12 -10.25,10.25 -26.87,10.25 -37.13,0zm57.64 -57.64c-10.25,-10.25 -10.25,-26.87 0,-37.12 10.25,-10.25 26.87,-10.25 37.12,0 10.25,10.25 10.25,26.87 0,37.12 -10.25,10.25 -26.87,10.25 -37.12,-0zm57.64 -57.64c-10.25,-10.25 -10.25,-26.87 0,-37.12 10.25,-10.25 26.87,-10.25 37.12,-0 10.25,10.25 10.25,26.87 0,37.13 -10.25,10.25 -26.87,10.25 -37.12,0zm57.64 -57.64c-10.25,-10.25 -10.25,-26.87 0,-37.12 10.25,-10.25 26.87,-10.25 37.12,0 10.25,10.25 10.25,26.87 0,37.12 -10.25,10.25 -26.87,10.25 -37.13,0zm57.64 -57.64c-10.25,-10.25 -10.25,-26.87 0,-37.12 10.25,-10.25 26.87,-10.25 37.12,0 10.25,10.25 10.25,26.87 0,37.12 -10.25,10.25 -26.87,10.25 -37.13,-0zm57.64 -57.64c-10.25,-10.25 -10.25,-26.87 0,-37.12 10.25,-10.25 26.87,-10.25 37.12,-0 10.25,10.25 10.25,26.87 0,37.13 -10.25,10.25 -26.87,10.25 -37.12,0zm57.64 -57.64c-10.25,-10.25 -10.25,-26.87 0,-37.12 10.25,-10.25 26.87,-10.25 37.12,0 10.25,10.25 10.25,26.87 0,37.12 -10.25,10.25 -26.87,10.25 -37.13,0zm52.4 -52.4c-10.25,-10.25 -10.25,-26.87 0,-37.12 10.25,-10.25 26.87,-10.25 37.12,0 10.25,10.25 10.25,26.87 0,37.12 -10.25,10.25 -26.87,10.25 -37.13,-0zm-335.66 460.83c-10.25,-10.25 -10.25,-26.87 0,-37.13 10.25,-10.25 26.87,-10.25 37.12,0 10.25,10.25 10.25,26.87 0,37.12 -10.25,10.25 -26.87,10.25 -37.12,0zm57.64 -57.64c-10.25,-10.25 -10.25,-26.87 -0,-37.12 10.25,-10.25 26.87,-10.25 37.12,0 10.25,10.25 10.25,26.87 0,37.12 -10.25,10.25 -26.87,10.25 -37.12,0zm57.64 -57.64c-10.25,-10.25 -10.25,-26.87 0,-37.12 10.25,-10.25 26.87,-10.25 37.13,0 10.25,10.25 10.25,26.87 -0,37.12 -10.25,10.25 -26.87,10.25 -37.12,0zm57.64 -57.64c-10.25,-10.25 -10.25,-26.87 0,-37.13 10.25,-10.25 26.87,-10.25 37.12,0 10.25,10.25 10.25,26.87 0,37.12 -10.25,10.25 -26.87,10.25 -37.12,0zm57.64 -57.64c-10.25,-10.25 -10.25,-26.87 -0,-37.12 10.25,-10.25 26.87,-10.25 37.13,0 10.25,10.25 10.25,26.87 0,37.12 -10.25,10.25 -26.87,10.25 -37.12,0zm57.64 -57.64c-10.25,-10.25 -10.25,-26.87 0,-37.12 10.25,-10.25 26.87,-10.25 37.13,0 10.25,10.25 10.25,26.87 -0,37.12 -10.25,10.25 -26.87,10.25 -37.12,0zm57.64 -57.64c-10.25,-10.25 -10.25,-26.87 0,-37.13 10.25,-10.25 26.87,-10.25 37.12,0 10.25,10.25 10.25,26.87 0,37.12 -10.25,10.25 -26.87,10.25 -37.12,0zm52.4 -52.4c-10.25,-10.25 -10.25,-26.87 -0,-37.12 10.25,-10.25 26.87,-10.25 37.13,0 10.25,10.25 10.25,26.87 0,37.12 -10.25,10.25 -26.87,10.25 -37.12,0zm109.89 140.44c10.25,10.25 10.25,26.87 0,37.12 -10.25,10.25 -26.87,10.25 -37.12,0 -10.25,-10.25 -10.25,-26.87 0,-37.13 10.25,-10.25 26.87,-10.25 37.12,0zm-57.64 57.64c10.25,10.25 10.25,26.87 -0,37.12 -10.25,10.25 -26.87,10.25 -37.12,0 -10.25,-10.25 -10.25,-26.87 0,-37.12 10.25,-10.25 26.87,-10.25 37.13,0zm-57.64 57.64c10.25,10.25 10.25,26.87 0,37.12 -10.25,10.25 -26.87,10.25 -37.12,0 -10.25,-10.25 -10.25,-26.87 -0,-37.12 10.25,-10.25 26.87,-10.25 37.13,0zm-57.64 57.64c10.25,10.25 10.25,26.87 0,37.12 -10.25,10.25 -26.87,10.25 -37.12,0 -10.25,-10.25 -10.25,-26.87 0,-37.13 10.25,-10.25 26.87,-10.25 37.12,0zm-57.64 57.64c10.25,10.25 10.25,26.87 -0,37.13 -10.25,10.25 -26.87,10.25 -37.12,0 -10.25,-10.25 -10.25,-26.87 0,-37.13 10.25,-10.25 26.87,-10.25 37.13,0zm-57.64 57.64c10.25,10.25 10.25,26.87 0,37.12 -10.25,10.25 -26.87,10.25 -37.12,0 -10.25,-10.25 -10.25,-26.87 -0,-37.12 10.25,-10.25 26.87,-10.25 37.12,0zm278.02 -403.19c10.25,10.25 10.25,26.87 0,37.12 -10.25,10.25 -26.87,10.25 -37.12,0 -10.25,-10.25 -10.25,-26.87 -0,-37.12 10.25,-10.25 26.87,-10.25 37.13,0zm-52.4 52.4c10.25,10.25 10.25,26.87 0,37.12 -10.25,10.25 -26.87,10.25 -37.12,0 -10.25,-10.25 -10.25,-26.87 0,-37.13 10.25,-10.25 26.87,-10.25 37.12,0zm-57.64 57.64c10.25,10.25 10.25,26.87 -0,37.12 -10.25,10.25 -26.87,10.25 -37.12,0 -10.25,-10.25 -10.25,-26.87 0,-37.12 10.25,-10.25 26.87,-10.25 37.13,0zm-57.64 57.64c10.25,10.25 10.25,26.87 0,37.12 -10.25,10.25 -26.87,10.25 -37.12,0 -10.25,-10.25 -10.25,-26.87 -0,-37.12 10.25,-10.25 26.87,-10.25 37.13,0zm-57.64 57.64c10.25,10.25 10.25,26.87 0,37.12 -10.25,10.25 -26.87,10.25 -37.12,0 -10.25,-10.25 -10.25,-26.87 0,-37.13 10.25,-10.25 26.87,-10.25 37.12,0zm-57.64 57.64c10.25,10.25 10.25,26.87 -0,37.13 -10.25,10.25 -26.87,10.25 -37.12,0 -10.25,-10.25 -10.25,-26.87 0,-37.13 10.25,-10.25 26.87,-10.25 37.13,0zm-57.64 57.64c10.25,10.25 10.25,26.87 0,37.12 -10.25,10.25 -26.87,10.25 -37.12,0 -10.25,-10.25 -10.25,-26.87 -0,-37.12 10.25,-10.25 26.87,-10.25 37.12,0zm-57.64 57.64c10.25,10.25 10.25,26.87 0,37.12 -10.25,10.25 -26.87,10.25 -37.12,0 -10.25,-10.25 -10.25,-26.87 0,-37.13 10.25,-10.25 26.87,-10.25 37.12,0zm472.94 -879.56c50.31,4.99 88.7,43.38 93.69,93.69 6.76,67.04 2.55,149.15 -25.6,159.68 -22.94,8.64 -51.97,-34.46 -72.64,-73.08 -18.73,-34.9 -47.15,-63.33 -82.05,-82.05 -38.61,-20.67 -81.67,-49.64 -73.08,-72.64 10.58,-28.09 92.64,-32.24 159.68,-25.6zm-387.61 168.4c10.25,10.25 10.25,26.87 0,37.12 -10.25,10.25 -26.87,10.25 -37.12,0 -10.25,-10.25 -10.25,-26.87 -0,-37.12 10.25,-10.25 26.87,-10.25 37.12,0zm-52.4 52.4c10.25,10.25 10.25,26.87 0,37.12 -10.25,10.25 -26.87,10.25 -37.12,0 -10.25,-10.25 -10.25,-26.87 0,-37.13 10.25,-10.25 26.87,-10.25 37.12,0zm-57.64 57.64c10.25,10.25 10.25,26.87 -0,37.12 -10.25,10.25 -26.87,10.25 -37.12,0 -10.25,-10.25 -10.25,-26.87 0,-37.12 10.25,-10.25 26.87,-10.25 37.13,0zm-57.64 57.64c10.25,10.25 10.25,26.87 0,37.12 -10.25,10.25 -26.87,10.25 -37.12,0 -10.25,-10.25 -10.25,-26.87 -0,-37.12 10.25,-10.25 26.87,-10.25 37.12,0zm-57.64 57.64c10.25,10.25 10.25,26.87 0,37.12 -10.25,10.25 -26.87,10.25 -37.12,0 -10.25,-10.25 -10.25,-26.87 0,-37.13 10.25,-10.25 26.87,-10.25 37.12,0zm-57.64 57.64c10.25,10.25 10.25,26.87 -0,37.12 -10.25,10.25 -26.87,10.25 -37.12,0 -10.25,-10.25 -10.25,-26.87 0,-37.12 10.25,-10.25 26.87,-10.25 37.13,0zm-57.64 57.64c10.25,10.25 10.25,26.87 0,37.12 -10.25,10.25 -26.87,10.25 -37.12,0 -10.25,-10.25 -10.25,-26.87 -0,-37.12 10.25,-10.25 26.87,-10.25 37.12,0zm-57.64 57.64c10.25,10.25 10.25,26.87 0,37.12 -10.25,10.25 -26.87,10.25 -37.12,0 -10.25,-10.25 -10.25,-26.87 0,-37.13 10.25,-10.25 26.87,-10.25 37.12,0zm283.26 -408.43c10.25,10.25 10.25,26.87 0,37.12 -10.25,10.25 -26.87,10.25 -37.13,0 -10.25,-10.25 -10.25,-26.87 0,-37.12 10.25,-10.25 26.87,-10.25 37.12,0zm-57.64 57.64c10.25,10.25 10.25,26.87 0,37.13 -10.25,10.25 -26.87,10.25 -37.12,0 -10.25,-10.25 -10.25,-26.87 0,-37.12 10.25,-10.25 26.87,-10.25 37.12,-0zm-57.64 57.64c10.25,10.25 10.25,26.87 0,37.12 -10.25,10.25 -26.87,10.25 -37.12,-0 -10.25,-10.25 -10.25,-26.87 0,-37.12 10.25,-10.25 26.87,-10.25 37.12,0zm-57.64 57.64c10.25,10.25 10.25,26.87 0,37.12 -10.25,10.25 -26.87,10.25 -37.13,0 -10.25,-10.25 -10.25,-26.87 0,-37.12 10.25,-10.25 26.87,-10.25 37.12,0zm-57.64 57.64c10.25,10.25 10.25,26.87 0,37.13 -10.25,10.25 -26.87,10.25 -37.12,0 -10.25,-10.25 -10.25,-26.87 0,-37.12 10.25,-10.25 26.87,-10.25 37.12,-0zm-57.64 57.64c10.25,10.25 10.25,26.87 0,37.12 -10.25,10.25 -26.87,10.25 -37.12,-0 -10.25,-10.25 -10.25,-26.87 0,-37.12 10.25,-10.25 26.87,-10.25 37.12,0z"/>
 </g>
</svg>
